<svg xmlns="http://www.w3.org/2000/svg" width="40" height="37" viewBox="0 0 40 37">
  <g id="calendarIcon" transform="translate(-168 -1009)">
    <path id="Fill_1" data-name="Fill 1" d="M35.435,37H4.567A4.544,4.544,0,0,1,0,32.489V8.087a4.544,4.544,0,0,1,4.567-4.51H5.948l.03-1.6C6,.869,6.566,0,7.27,0h.04C8.028.033,8.59.974,8.565,2.1L8.538,3.577H18.951l.03-1.6C19,.869,19.568,0,20.277,0h.039c.718.033,1.282.974,1.256,2.1l-.028,1.479h10.41l.03-1.6C32,.869,32.572,0,33.276,0h.039c.718.033,1.282.974,1.256,2.1l-.027,1.479h.889A4.544,4.544,0,0,1,40,8.086v24.4A4.544,4.544,0,0,1,35.434,37Zm-33-22.637h0V32.484a2.123,2.123,0,0,0,2.129,2.1H35.435a2.123,2.123,0,0,0,2.129-2.1V14.363ZM4.562,5.981a2.123,2.123,0,0,0-2.129,2.1v3.871H37.568V8.087a2.123,2.123,0,0,0-2.129-2.1H34.5l-.015.833C34.471,7.927,33.9,8.8,33.2,8.8h-.043c-.71-.036-1.257-.931-1.257-2.04V6.695l.013-.714H21.494l-.015.833c-.02,1.109-.588,1.978-1.292,1.978h-.04c-.7-.032-1.256-.927-1.256-2.036V6.695l.013-.714H8.493l-.015.833C8.457,7.923,7.89,8.792,7.186,8.792h-.04c-.7-.032-1.256-.927-1.256-2.036V6.695L5.9,5.981Z" transform="translate(168 1009)" fill="#0a3453"/>
    <path id="Fill_4" data-name="Fill 4" d="M8.021,18.128a1.906,1.906,0,1,0,1.907,1.906,1.906,1.906,0,0,0-1.907-1.906h0" transform="translate(168.094 1009.023)" fill="#0a3453"/>
    <path id="Fill_6" data-name="Fill 6" d="M15.2,18.128a1.906,1.906,0,1,0,1.907,1.906A1.906,1.906,0,0,0,15.2,18.128h0" transform="translate(168.204 1009.023)" fill="#0a3453"/>
    <path id="Fill_8" data-name="Fill 8" d="M22.39,18.128a1.906,1.906,0,1,0,1.91,1.906,1.906,1.906,0,0,0-1.91-1.906h0" transform="translate(168.314 1009.023)" fill="#0a3453"/>
    <path id="Fill_10" data-name="Fill 10" d="M29.574,18.128a1.906,1.906,0,1,0,1.907,1.906,1.906,1.906,0,0,0-1.907-1.906" transform="translate(168.425 1009.023)" fill="#0a3453"/>
    <path id="Fill_12" data-name="Fill 12" d="M8.021,25.467a1.906,1.906,0,1,0,1.907,1.906,1.906,1.906,0,0,0-1.907-1.906" transform="translate(168.094 1009.032)" fill="#0a3453"/>
    <path id="Fill_14" data-name="Fill 14" d="M15.2,25.467a1.906,1.906,0,1,0,1.907,1.906A1.906,1.906,0,0,0,15.2,25.467" transform="translate(168.204 1009.032)" fill="#0a3453"/>
    <path id="Fill_16" data-name="Fill 16" d="M22.39,25.467a1.906,1.906,0,1,0,1.91,1.906,1.906,1.906,0,0,0-1.91-1.906" transform="translate(168.314 1009.032)" fill="#0a3453"/>
    <path id="Fill_18" data-name="Fill 18" d="M29.574,25.467a1.906,1.906,0,1,0,1.907,1.906,1.906,1.906,0,0,0-1.907-1.906" transform="translate(168.425 1009.032)" fill="#0a3453"/>
  </g>
</svg>
