<svg xmlns="http://www.w3.org/2000/svg" width="40" height="40" viewBox="0 0 40 40">
  <g id="certifiedOfferIcon" transform="translate(-168 -840)">
    <g id="Group-3" transform="translate(168 840)">
      <path id="Fill-1" d="M35.7,21.025a3.5,3.5,0,0,0-1.468,1.759,3.565,3.565,0,0,0,.7,2.235c.22.4.587,1.1.514,1.319-.11.22-.844.439-1.358.586a3.382,3.382,0,0,0-2.019,1.063,3.456,3.456,0,0,0-.22,2.308c.037.477.147,1.282-.037,1.466s-.991.073-1.468.036a3.476,3.476,0,0,0-2.313.22,3.46,3.46,0,0,0-1.065,2.015c-.147.513-.367,1.246-.588,1.356s-.918-.293-1.322-.513a3.37,3.37,0,0,0-2.239-.7,3.364,3.364,0,0,0-1.762,1.466c-.294.4-.808,1.026-1.065,1.026s-.734-.623-1.065-1.026a3.507,3.507,0,0,0-1.762-1.466.716.716,0,0,0-.294-.037,3.6,3.6,0,0,0-1.872.769c-.4.22-1.1.623-1.322.513s-.441-.843-.587-1.356a3.371,3.371,0,0,0-1.065-2.015,3.475,3.475,0,0,0-2.313-.22c-.477.037-1.285.147-1.468-.037s-.073-.989-.037-1.465a3.455,3.455,0,0,0-.22-2.308A3.472,3.472,0,0,0,5.96,26.96c-.514-.146-1.248-.366-1.358-.586s.294-.916.514-1.319a3.355,3.355,0,0,0,.7-2.235,3.361,3.361,0,0,0-1.469-1.759c-.4-.293-1.028-.806-1.028-1.063s.624-.733,1.028-1.062a3.5,3.5,0,0,0,1.469-1.759,3.566,3.566,0,0,0-.7-2.235,3.931,3.931,0,0,1-.587-1.356c.11-.22.844-.44,1.358-.586a3.381,3.381,0,0,0,2.019-1.062,3.454,3.454,0,0,0,.22-2.308c-.037-.476-.147-1.282.037-1.465s.991-.073,1.468-.037a3.476,3.476,0,0,0,2.313-.22,3.46,3.46,0,0,0,1.065-2.015c.147-.513.367-1.246.587-1.356s.918.293,1.322.513a3.371,3.371,0,0,0,2.239.7,3.364,3.364,0,0,0,1.762-1.465c.294-.4.808-1.026,1.065-1.026s.734.623,1.065,1.026a3.505,3.505,0,0,0,1.762,1.465,3.583,3.583,0,0,0,2.239-.7c.4-.22,1.1-.586,1.322-.513.22.11.441.843.588,1.356a3.368,3.368,0,0,0,1.065,2.015,3.476,3.476,0,0,0,2.313.22c.477-.037,1.285-.146,1.468.037s.073.989.037,1.465a3.456,3.456,0,0,0,.22,2.308A3.472,3.472,0,0,0,34.081,13c.514.147,1.248.366,1.358.586s-.294.916-.514,1.319a3.353,3.353,0,0,0-.7,2.235A3.361,3.361,0,0,0,35.7,18.9c.4.293,1.028.806,1.028,1.062S36.1,20.7,35.7,21.025m2.625,1.307C39.1,21.679,40,20.984,40,20s-.9-1.716-1.679-2.329c-.45-.327-1.064-.817-1.105-1.1a3.659,3.659,0,0,1,.614-1.512c.491-.9,1.024-1.839.655-2.737s-1.392-1.185-2.416-1.471a3.6,3.6,0,0,1-1.474-.613,3.415,3.415,0,0,1,0-1.594c.123-1.021.246-2.084-.45-2.778-.655-.695-1.76-.572-2.784-.449a3.431,3.431,0,0,1-1.6,0c-.246-.163-.451-.94-.614-1.471-.287-.981-.573-2.043-1.474-2.411s-1.843.163-2.743.654c-.532.286-1.187.695-1.515.613-.286-.041-.737-.654-1.105-1.1C21.658.923,20.962.024,19.979.024s-1.72.9-2.334,1.675c-.328.449-.819,1.062-1.106,1.1a3.675,3.675,0,0,1-1.515-.613c-.9-.49-1.842-1.022-2.743-.654S11.1,2.925,10.809,3.947a3.587,3.587,0,0,1-.614,1.471,3.433,3.433,0,0,1-1.6,0c-1.024-.123-2.088-.245-2.784.449-.7.654-.573,1.757-.45,2.778a3.413,3.413,0,0,1,0,1.594c-.164.245-.942.449-1.474.613-.982.286-2.047.572-2.415,1.471s.164,1.839.7,2.778a4.134,4.134,0,0,1,.614,1.511c-.041.286-.655.736-1.105,1.1C.9,18.369,0,19.064,0,20.045s.9,1.716,1.679,2.329c.45.327,1.064.817,1.105,1.1a3.656,3.656,0,0,1-.614,1.512c-.491.9-1.023,1.839-.655,2.738S2.907,28.911,3.93,29.2A3.6,3.6,0,0,1,5.4,29.81a3.412,3.412,0,0,1,0,1.593c-.123,1.021-.246,2.084.45,2.778.655.695,1.76.572,2.784.45a3.426,3.426,0,0,1,1.6,0c.246.163.451.94.614,1.471.287.981.573,2.043,1.474,2.411s1.843-.163,2.743-.654c.532-.286,1.228-.694,1.515-.613.287.041.737.654,1.105,1.1.655.776,1.351,1.675,2.334,1.675s1.679-.9,2.293-1.716c.327-.449.819-1.062,1.105-1.1a3.675,3.675,0,0,1,1.515.613c.9.49,1.843,1.022,2.743.654s1.187-1.389,1.474-2.411a3.584,3.584,0,0,1,.614-1.471,3.434,3.434,0,0,1,1.6,0c1.024.123,2.088.245,2.784-.449.7-.654.573-1.757.45-2.778a3.415,3.415,0,0,1,0-1.593c.164-.245.942-.449,1.474-.613.983-.286,2.047-.572,2.416-1.471s-.164-1.839-.655-2.737a4.138,4.138,0,0,1-.614-1.512c.041-.286.655-.736,1.105-1.1" transform="translate(0 -0.024)" fill="#0a3453" fill-rule="evenodd"/>
    </g>
    <path id="Fill-4" d="M20.718,26.259a2.668,2.668,0,0,0,1.736-.913,2.834,2.834,0,0,0,.685-1.937,2.43,2.43,0,0,0-.485-1.581,4.192,4.192,0,0,0-1.937-1.069ZM19.658,13.773A2.668,2.668,0,0,0,18,14.616a2.515,2.515,0,0,0-.09,3.162,3.548,3.548,0,0,0,1.746.993Zm0,15.818V27.784a6.632,6.632,0,0,1-2.2-.607A3.835,3.835,0,0,1,16,25.767a5.056,5.056,0,0,1-.715-2.379l1.811-.341a4.594,4.594,0,0,0,.741,2.138,2.626,2.626,0,0,0,1.821,1.074V20.507a7.506,7.506,0,0,1-2.272-.863,3.333,3.333,0,0,1-1.326-1.335,3.977,3.977,0,0,1-.465-1.937,3.955,3.955,0,0,1,1.361-3.122,4.724,4.724,0,0,1,2.7-.984V11.4h1.061v.863a4.441,4.441,0,0,1,2.492.923,4.108,4.108,0,0,1,1.421,2.7l-1.862.281A3.1,3.1,0,0,0,22.1,14.54a2.453,2.453,0,0,0-1.386-.748V19a14.294,14.294,0,0,1,1.8.532,4.448,4.448,0,0,1,1.371.9,3.632,3.632,0,0,1,.816,1.265,4.4,4.4,0,0,1-3.988,6.062v1.827Z" transform="translate(168.054 839.742)" fill="#0a3453" fill-rule="evenodd"/>
  </g>
</svg>
