<svg xmlns="http://www.w3.org/2000/svg" xmlns:xlink="http://www.w3.org/1999/xlink" width="375" height="772" viewBox="0 0 375 772">
  <defs>
    <linearGradient id="linear-gradient" x1="0.513" y1="0.83" x2="0.512" gradientUnits="objectBoundingBox">
      <stop offset="0" stop-color="#f3f3f3"/>
      <stop offset="1" stop-color="#fff"/>
    </linearGradient>
    <clipPath id="clip-path">
      <path id="Path_12" data-name="Path 12" d="M0-17.221H11.232v11.27H0Z" transform="translate(0 17.221)" fill="#9b9b9b"/>
    </clipPath>
  </defs>
  <g id="Group_29500" data-name="Group 29500" transform="translate(0 -69)">
    <rect id="Rectangle_78391" data-name="Rectangle 78391" width="375" height="259" transform="translate(375 328) rotate(180)" fill="#fff"/>
    <rect id="Rectangle_78440" data-name="Rectangle 78440" width="375" height="288" transform="translate(375 565) rotate(180)" fill="url(#linear-gradient)"/>
    <text id="How_our_appraisal_team_determines_your_offer" data-name="How our appraisal team
determines your offer" transform="translate(25 307)" fill="#0a3555" font-size="18" font-family="Arial-BoldMT, Arial" font-weight="700"><tspan x="60.973" y="16">How our appraisal team</tspan><tspan x="69.978" y="38">determines your offer</tspan></text>
    <text id="Please_check_your_email_within_the_next_30_minutes_for_your_certified_offer." data-name="Please check your email within the next 
30 minutes* for your certified offer." transform="translate(188 207)" fill="#5c5c5c" font-size="14" font-family="ArialMT, Arial"><tspan x="-124.506" y="0">Please check your email within the next </tspan><tspan x="-106.48" y="18">30 minutes* for your certified offer.</tspan></text>
    <text id="_During_regular_business_hours." data-name="*During regular business hours." transform="translate(180 249)" fill="#5c5c5c" font-size="12" font-family="ArialMT, Arial"><tspan x="-84.044" y="0">*During regular business hours.</tspan></text>
    <g id="Group_29279" data-name="Group 29279" transform="translate(0 414)">
      <g id="Rectangle_78035" data-name="Rectangle 78035" transform="translate(15 372)" fill="#fff" stroke="#6b788e" stroke-width="0.5">
        <rect width="345" height="55" rx="3" stroke="none"/>
        <rect x="0.25" y="0.25" width="344.5" height="54.5" rx="2.75" fill="none"/>
      </g>
      <text id="Get_pre-qualified_Find_out_how_much_you_can_finance." data-name="Get pre-qualified
Find out how much you can finance." transform="translate(30 397)" fill="#e41565" font-size="14" font-family="Arial-BoldMT, Arial" font-weight="700"><tspan x="0" y="0">Get pre-qualified</tspan><tspan fill="#6b788e" font-family="ArialMT, Arial" font-weight="400"><tspan x="0" y="16">Find out how much you can finance.</tspan></tspan></text>
    </g>
    <g id="Group_29281" data-name="Group 29281" transform="translate(0 339)">
      <g id="Rectangle_78035-2" data-name="Rectangle 78035" transform="translate(15 372)" fill="#fff" stroke="#6b788e" stroke-width="0.5">
        <rect width="345" height="55" rx="3" stroke="none"/>
        <rect x="0.25" y="0.25" width="344.5" height="54.5" rx="2.75" fill="none"/>
      </g>
      <text id="Schedule_an_appointment_Arrange_a_time_to_come_by_our_store." data-name="Schedule an appointment
Arrange a time to come by our store." transform="translate(30 397)" fill="#e41565" font-size="14" font-family="Arial-BoldMT, Arial" font-weight="700"><tspan x="0" y="0">Schedule an appointment</tspan><tspan fill="#6b788e" font-family="ArialMT, Arial" font-weight="400"><tspan x="0" y="16">Arrange a time to come by our store.</tspan></tspan></text>
    </g>
    <text id="What_would_you_like_to_do_next_" data-name="What would you like to do next?" transform="translate(188 612)" fill="#0a3453" font-size="18" font-family="Arial-BoldMT, Arial" font-weight="700"><tspan x="-137.496" y="0">What would you like to do next?</tspan></text>
    <g id="Group_29283" data-name="Group 29283" transform="translate(0 264)">
      <g id="Rectangle_78035-3" data-name="Rectangle 78035" transform="translate(15 372)" fill="#fff" stroke="#6b788e" stroke-width="0.5">
        <rect width="345" height="55" rx="3" stroke="none"/>
        <rect x="0.25" y="0.25" width="344.5" height="54.5" rx="2.75" fill="none"/>
      </g>
      <text id="Shop_for_new_and_used_cars_100_000_choices._We_have_yours." data-name="Shop for new and used cars
100,000 choices. We have yours." transform="translate(30 397)" fill="#e41565" font-size="14" font-family="Arial-BoldMT, Arial" font-weight="700"><tspan x="0" y="0">Shop for new and used cars</tspan><tspan fill="#6b788e" font-family="ArialMT, Arial" font-weight="400"><tspan x="0" y="16">100,000 choices. We have yours.</tspan></tspan></text>
    </g>
    <rect id="Rectangle_78359" data-name="Rectangle 78359" width="375" height="1" transform="translate(0 565)" fill="#f4f4f4"/>
    <g id="Group_29134" data-name="Group 29134" transform="translate(-8 22)">
      <text id="Thank_You_" data-name="Thank You!" transform="translate(196 158)" fill="#083554" font-size="18" font-family="Arial-BoldMT, Arial" font-weight="700"><tspan x="-48.168" y="0">Thank You!</tspan></text>
    </g>
    <g id="Group_29343" data-name="Group 29343" transform="translate(58.297 278.876)">
      <g id="Group_29342" data-name="Group 29342" transform="translate(110.703 98.124)">
        <path id="Path_217031" data-name="Path 217031" d="M129.969,98.124a19.266,19.266,0,1,0,19.266,19.266A19.288,19.288,0,0,0,129.969,98.124Zm0,36.031a16.726,16.726,0,0,1-12.49-5.6,13.69,13.69,0,0,1,24.98,0A16.726,16.726,0,0,1,129.969,134.155ZM124.2,112.206a5.769,5.769,0,1,1,5.769,5.769A5.775,5.775,0,0,1,124.2,112.206Zm15.034,8.68a16.109,16.109,0,0,0-4.242-2.116,8.271,8.271,0,1,0-10.047,0,16.21,16.21,0,0,0-9.15,7.564,16.764,16.764,0,1,1,28.347,0A16.17,16.17,0,0,0,139.235,120.886Z" transform="translate(-110.703 -98.124)" fill="#0a3453"/>
      </g>
    </g>
    <text id="Your_information" data-name="Your information" transform="translate(188 443)" fill="#0a3453" font-size="14" font-family="Arial-BoldMT, Arial" font-weight="700"><tspan x="-55.867" y="0">Your information</tspan></text>
    <text id="We_go_over_what_you_told_us_about_your_car_and_the_cost_to_repair." data-name="We go over what you told us about 
your car and the cost to repair." transform="translate(188 474)" fill="#5c5c5c" font-size="14" font-family="ArialMT, Arial"><tspan x="-109.604" y="0">We go over what you told us about </tspan><tspan x="-94.551" y="18">your car and the cost to repair.</tspan></text>
    <g id="Group_29344" data-name="Group 29344" transform="translate(-395.254 -136.379)">
      <text id="CERTIFIED_OFFER" data-name="CERTIFIED OFFER" transform="translate(553.231 226.633)" fill="#e61464" font-size="5" font-family="ProximaNova-Semibold, Proxima Nova" font-weight="600" letter-spacing="0.226em"><tspan x="0" y="0">CERTIFIED OFFER</tspan></text>
      <g id="Group_28" data-name="Group 28" transform="translate(468 213)">
        <rect id="Rectangle_735" data-name="Rectangle 735" width="45.071" height="0.882" transform="translate(109.742 37.365)" fill="#e61464"/>
        <rect id="Rectangle_729" data-name="Rectangle 729" width="69.651" height="0.985" transform="translate(85.161 19.699)" fill="#e61464"/>
        <rect id="Rectangle_730" data-name="Rectangle 730" width="69.651" height="0.985" transform="translate(85.161 28.563)" fill="#e61464"/>
        <rect id="Rectangle_733" data-name="Rectangle 733" width="29.576" height="0.882" transform="translate(109.742 45.307)" fill="#e61464"/>
        <rect id="Rectangle_732" data-name="Rectangle 732" width="29.576" height="0.981" transform="translate(109.742 52.366)" fill="#e61464"/>
        <g id="Path_21" data-name="Path 21" transform="translate(63.255)" fill="none">
          <path d="M3.139,0H99.879a3.139,3.139,0,0,1,3.139,3.139V60.881a3.139,3.139,0,0,1-3.139,3.139H3.139A3.139,3.139,0,0,1,0,60.881V3.139A3.139,3.139,0,0,1,3.139,0Z" stroke="none"/>
          <path d="M 3.13934326171875 1.499996185302734 C 2.235397338867188 1.499996185302734 1.5 2.235397338867188 1.5 3.139339447021484 L 1.5 60.88139724731445 C 1.5 61.78533935546875 2.235397338867188 62.5207405090332 3.13934326171875 62.5207405090332 L 99.87882995605469 62.5207405090332 C 100.7827758789062 62.5207405090332 101.5181732177734 61.78533935546875 101.5181732177734 60.88139724731445 L 101.5181732177734 3.139339447021484 C 101.5181732177734 2.235397338867188 100.7827758789062 1.499996185302734 99.87882995605469 1.499996185302734 L 3.13934326171875 1.499996185302734 M 3.13934326171875 0 L 99.87882995605469 0 C 101.6126403808594 0 103.0181732177734 1.405525207519531 103.0181732177734 3.139339447021484 L 103.0181732177734 60.88139724731445 C 103.0181732177734 62.61519622802734 101.6126403808594 64.02073669433594 99.87882995605469 64.02073669433594 L 3.13934326171875 64.02073669433594 C 1.405532836914062 64.02073669433594 0 62.61519622802734 0 60.88139724731445 L 0 3.139339447021484 C 0 1.405525207519531 1.405532836914062 0 3.13934326171875 0 Z" stroke="none" fill="#e61464"/>
        </g>
        <path id="Path_3" data-name="Path 3" d="M0-12H10.244V4.019L4.986,2.21,0,4.019Z" transform="translate(71.172 16.665)" fill="#e61464"/>
        <g id="Group_21" data-name="Group 21" transform="translate(73.426 10.356)">
          <g id="Group_20" data-name="Group 20" transform="translate(0 0)">
            <path id="Path_4" data-name="Path 4" d="M-7.233,0h0L-10.3,3.067l-1.18-1.179-.472.472,1.18,1.179.472.472L-6.762.472Z" transform="translate(11.951)" fill="#fff"/>
          </g>
        </g>
        <g id="Rectangle_727" data-name="Rectangle 727" transform="translate(67.18 3.94)" fill="none" stroke="#e61464" stroke-width="1.5">
          <rect width="94.554" height="56.141" stroke="none"/>
          <rect x="0.75" y="0.75" width="93.054" height="54.641" fill="none"/>
        </g>
        <g id="Group_27" data-name="Group 27" transform="translate(140.786 42.952)">
          <g id="Group_26" data-name="Group 26" transform="translate(0 0)" clip-path="url(#clip-path)">
            <g id="Group_25" data-name="Group 25" transform="translate(3.673 3.725)">
              <path id="Path_11" data-name="Path 11" d="M-2.29-4.579A1.921,1.921,0,0,1-4.2-6.489,1.921,1.921,0,0,1-2.29-8.4,1.921,1.921,0,0,1-.38-6.489a1.952,1.952,0,0,1-1.91,1.91" transform="translate(4.2 8.399)" fill="#fff"/>
            </g>
          </g>
        </g>
      </g>
      <g id="Group_29" data-name="Group 29" transform="translate(613.663 253.812)">
        <path id="Path_17" data-name="Path 17" d="M5.912,5.5a2.832,2.832,0,0,1-.812.542V9.7L7.131,10.78Z" transform="translate(1.805 1.946)" fill="#e61464"/>
        <path id="Path_18" data-name="Path 18" d="M1.9,6.042A2.377,2.377,0,0,1,1.218,5.5L0,10.78,1.9,9.7Z" transform="translate(0 1.946)" fill="#e61464"/>
        <path id="Path_19" data-name="Path 19" d="M5.691,6.2a4.778,4.778,0,0,1-1.9.406A4.324,4.324,0,0,1,1.9,6.2v6.228L3.931,10.8l1.76,1.083Z" transform="translate(0.672 2.194)" fill="#e61464"/>
        <path id="Path_20" data-name="Path 20" d="M2.331,7.717a2.639,2.639,0,0,0,1.083.135,2.022,2.022,0,0,0,.948.406,2.022,2.022,0,0,0,.948-.406,2.981,2.981,0,0,0,1.083-.135A1.99,1.99,0,0,0,7.069,6.9a5.731,5.731,0,0,0,.948-.677,2.639,2.639,0,0,0,.135-1.083,2.585,2.585,0,0,0,.406-1.083,2.022,2.022,0,0,0-.406-.948,2.981,2.981,0,0,0-.135-1.083,5.732,5.732,0,0,0-.948-.677C6.934,1.083,6.8.677,6.392.542A2.3,2.3,0,0,0,5.445.406C5.039.271,4.768,0,4.362,0a2.022,2.022,0,0,0-.948.406A2.639,2.639,0,0,0,2.331.542a1.8,1.8,0,0,0-.677.812c-.271.271-.677.406-.812.677-.271.406-.135.677-.271,1.083A2.51,2.51,0,0,0,.3,4.062a2.022,2.022,0,0,0,.406.948A2.981,2.981,0,0,0,.842,6.092a1.99,1.99,0,0,0,.812.677A2.428,2.428,0,0,0,2.331,7.717ZM4.362,1.489A2.708,2.708,0,1,1,1.654,4.2,2.716,2.716,0,0,1,4.362,1.489Z" transform="translate(0.106)" fill="#e61464"/>
      </g>
      <g id="Group_29370" data-name="Group 29370" transform="translate(541.879 251.756)">
        <g id="Group_29357" data-name="Group 29357" transform="translate(2.47 8.646)">
          <g id="Group_29356" data-name="Group 29356">
            <path id="Path_217037" data-name="Path 217037" d="M45.755,277.333a3.088,3.088,0,1,0,3.088,3.088A3.092,3.092,0,0,0,45.755,277.333Zm0,4.941a1.853,1.853,0,1,1,1.853-1.853A1.855,1.855,0,0,1,45.755,282.274Z" transform="translate(-42.667 -277.333)" fill="#e61464"/>
          </g>
        </g>
        <g id="Group_29359" data-name="Group 29359" transform="translate(20.997 8.646)">
          <g id="Group_29358" data-name="Group 29358">
            <path id="Path_217038" data-name="Path 217038" d="M365.755,277.333a3.088,3.088,0,1,0,3.088,3.088A3.092,3.092,0,0,0,365.755,277.333Zm0,4.941a1.853,1.853,0,1,1,1.853-1.853A1.855,1.855,0,0,1,365.755,282.274Z" transform="translate(-362.667 -277.333)" fill="#e61464"/>
          </g>
        </g>
        <g id="Group_29361" data-name="Group 29361" transform="translate(0 0)">
          <g id="Group_29360" data-name="Group 29360">
            <path id="Path_217039" data-name="Path 217039" d="M25.938,132.941H24.893a1.691,1.691,0,0,1-1.055-.371l-4.866-3.893A3.1,3.1,0,0,0,17.042,128H8.115a3.081,3.081,0,0,0-2.569,1.375l-1.051,1.578a1.691,1.691,0,0,1-1.407.752A3.092,3.092,0,0,0,0,134.793v2.47a3.092,3.092,0,0,0,3.088,3.088.618.618,0,1,0,0-1.235,1.855,1.855,0,0,1-1.853-1.853v-2.47a1.855,1.855,0,0,1,1.853-1.853,2.919,2.919,0,0,0,2.434-1.3l1.051-1.577a1.851,1.851,0,0,1,1.541-.825h8.928a1.864,1.864,0,0,1,1.159.406l4.866,3.892a2.929,2.929,0,0,0,1.827.642h1.044c1.812,0,2.47,1.846,2.47,3.088a1.793,1.793,0,0,1-1.853,1.853.618.618,0,0,0,0,1.235,3.02,3.02,0,0,0,3.088-3.088C29.643,135.167,28.345,132.941,25.938,132.941Z" transform="translate(0 -128)" fill="#e61464"/>
          </g>
        </g>
        <g id="Group_29363" data-name="Group 29363" transform="translate(7.411 11.116)">
          <g id="Group_29362" data-name="Group 29362">
            <path id="Path_217040" data-name="Path 217040" d="M142.2,320H128.618a.618.618,0,0,0,0,1.235H142.2a.618.618,0,1,0,0-1.235Z" transform="translate(-128 -320)" fill="#e61464"/>
          </g>
        </g>
        <g id="Group_29365" data-name="Group 29365" transform="translate(13.586 2.47)">
          <g id="Group_29364" data-name="Group 29364">
            <path id="Path_217041" data-name="Path 217041" d="M241.459,173.136H235.9v-1.853a.618.618,0,1,0-1.235,0v2.47a.618.618,0,0,0,.618.618h6.176a.618.618,0,1,0,0-1.235Z" transform="translate(-234.666 -170.666)" fill="#e61464"/>
          </g>
        </g>
        <g id="Group_29367" data-name="Group 29367" transform="translate(6.176 2.471)">
          <g id="Group_29366" data-name="Group 29366">
            <path id="Path_217042" data-name="Path 217042" d="M112.226,173.141h-3.941l.789-1.576a.618.618,0,0,0-1.105-.552l-1.235,2.47a.617.617,0,0,0,.552.893h4.94a.618.618,0,0,0,0-1.235Z" transform="translate(-106.668 -170.671)" fill="#e61464"/>
          </g>
        </g>
        <g id="Group_29369" data-name="Group 29369" transform="translate(14.822 7.411)">
          <g id="Group_29368" data-name="Group 29368">
            <path id="Path_217043" data-name="Path 217043" d="M257.853,256h-1.235a.618.618,0,1,0,0,1.235h1.235a.618.618,0,1,0,0-1.235Z" transform="translate(-256 -256)" fill="#e61464"/>
          </g>
        </g>
      </g>
    </g>
    <g id="Group_29461" data-name="Group 29461" transform="translate(-3)" opacity="0.5">
      <path id="Path_217084" data-name="Path 217084" d="M9.56,0H32.139V.981H9Z" transform="translate(98.255 99.274)" fill="#e61464"/>
      <path id="Path_217085" data-name="Path 217085" d="M19.56,0H47.851V1.177H19Z" transform="translate(82.544 115.033)" fill="#e61464"/>
      <path id="Path_217086" data-name="Path 217086" d="M29.56,0H65.671V1.177H29Z" transform="translate(64.723 131.777)" fill="#e61464"/>
      <path id="Path_217087" data-name="Path 217087" d="M9.7,0H23.145V.981H9Z" transform="translate(106.545 82.53)" fill="#e61464"/>
    </g>
    <g id="Group_29492" data-name="Group 29492" transform="translate(38 1)">
      <g id="Ellipse_176" data-name="Ellipse 176" transform="translate(85 524)" fill="#0a3555" stroke="#0a3555" stroke-width="1">
        <circle cx="5" cy="5" r="5" stroke="none"/>
        <circle cx="5" cy="5" r="4.5" fill="none"/>
      </g>
      <g id="Ellipse_177" data-name="Ellipse 177" transform="translate(125 524)" fill="none" stroke="#e61464" stroke-width="1">
        <circle cx="5" cy="5" r="5" stroke="none"/>
        <circle cx="5" cy="5" r="4.5" fill="none"/>
      </g>
      <g id="Ellipse_178" data-name="Ellipse 178" transform="translate(165 524)" fill="none" stroke="#e61464" stroke-width="1">
        <circle cx="5" cy="5" r="5" stroke="none"/>
        <circle cx="5" cy="5" r="4.5" fill="none"/>
      </g>
      <g id="Ellipse_179" data-name="Ellipse 179" transform="translate(205 524)" fill="none" stroke="#e61464" stroke-width="1">
        <circle cx="5" cy="5" r="5" stroke="none"/>
        <circle cx="5" cy="5" r="4.5" fill="none"/>
      </g>
    </g>
  </g>
</svg>
