<svg xmlns="http://www.w3.org/2000/svg" xmlns:xlink="http://www.w3.org/1999/xlink" width="318" height="389" viewBox="0 0 318 389">
  <defs>
    <clipPath id="clip-path">
      <path id="Path_216597" data-name="Path 216597" d="M109.42-5.5v-6.9l6.118,3.45Zm13.638-8.986a2.916,2.916,0,0,0-2.082-2.033c-1.836-.481-9.2-.481-9.2-.481s-7.364,0-9.2.481a2.916,2.916,0,0,0-2.082,2.033A29.243,29.243,0,0,0,100-8.95a29.243,29.243,0,0,0,.492,5.536,2.916,2.916,0,0,0,2.082,2.033c1.837.481,9.2.481,9.2.481s7.364,0,9.2-.481a2.916,2.916,0,0,0,2.082-2.033,29.254,29.254,0,0,0,.492-5.536A29.254,29.254,0,0,0,123.057-14.486Z" transform="translate(-100 17)" fill="none" clip-rule="evenodd"/>
    </clipPath>
    <clipPath id="clip-path-2">
      <path id="Path_216595" data-name="Path 216595" d="M71.385-2.35a9.827,9.827,0,0,0,9.995-9.8q0-.224-.01-.445a7.072,7.072,0,0,0,1.752-1.784,7.121,7.121,0,0,1-2.017.542,3.47,3.47,0,0,0,1.545-1.906,7.122,7.122,0,0,1-2.231.836A3.542,3.542,0,0,0,77.855-16a3.481,3.481,0,0,0-3.513,3.446,3.377,3.377,0,0,0,.091.786,10.039,10.039,0,0,1-7.241-3.6,3.384,3.384,0,0,0-.476,1.732,3.427,3.427,0,0,0,1.563,2.868,3.539,3.539,0,0,1-1.591-.431c0,.014,0,.029,0,.044a3.465,3.465,0,0,0,2.818,3.378,3.587,3.587,0,0,1-.926.121,3.57,3.57,0,0,1-.66-.062A3.509,3.509,0,0,0,71.2-5.325,7.137,7.137,0,0,1,66.838-3.85,7.282,7.282,0,0,1,66-3.9,10.086,10.086,0,0,0,71.385-2.35" transform="translate(-66 16)" fill="none" clip-rule="evenodd"/>
    </clipPath>
    <clipPath id="clip-path-3">
      <path id="Path_216601" data-name="Path 216601" d="M46.18-12.935a.981.981,0,0,1-.961,1,.981.981,0,0,1-.961-1,.981.981,0,0,1,.961-1,.981.981,0,0,1,.961,1" transform="translate(-44.258 13.935)" fill="none" clip-rule="evenodd"/>
    </clipPath>
    <clipPath id="clip-path-4">
      <path id="Path_216593" data-name="Path 216593" d="M.833-16A.833.833,0,0,0,0-15.167V-1.823A.833.833,0,0,0,.833-1H8.021V-6.8H6.065v-2.27H8.012v-1.667a2.729,2.729,0,0,1,2.917-2.993,15.863,15.863,0,0,1,1.747.09v2.021h-1.2c-.937,0-1.119.447-1.119,1.1v1.447H12.6L12.313-6.8H10.356V-1h3.816A.833.833,0,0,0,15-1.828V-15.167A.833.833,0,0,0,14.172-16Z" transform="translate(0 16)" fill="none" clip-rule="evenodd"/>
    </clipPath>
  </defs>
  <g id="Group_29496" data-name="Group 29496" transform="translate(-28.5 -3218)">
    <text id="copyright" transform="translate(83.257 3590)" fill="#fff" font-size="10" font-family="ArialMT, Arial"><tspan x="0" y="0">America’s Largest Automotive Retailer © 2018.</tspan><tspan x="0" y="14" xml:space="preserve">   AutoNation.com   All Rights Reserved.</tspan></text>
    <g id="footerLogo" transform="translate(139.453 3558)">
      <g id="navigation---logged-out" transform="translate(0 0)">
        <g id="Group-5">
          <g id="Group-24">
            <path id="Fill-1" d="M7.131,6.146c-.271-.756-.541-1.527-.684-2.011-.143.484-.414,1.255-.684,2.011L4.9,8.49h3.1Zm2.881,7.666L8.946,10.939H3.98L2.913,13.812H0L5.189.914H7.832l5.158,12.9Z" transform="translate(0 -0.436)" fill="#fff" fill-rule="evenodd"/>
            <path id="Fill-3" d="M27.445,15.881v-.637a3.293,3.293,0,0,1-2.294.83c-2.492,0-3.609-1.659-3.609-4.326V6.4h2.569v5.125c0,1.689.6,2.207,1.651,2.207s1.682-.5,1.682-2.148V6.4h2.569v9.466H27.445Z" transform="translate(-7.988 -2.697)" fill="#fff" fill-rule="evenodd"/>
            <g id="Group-7" transform="translate(23.788)">
              <path id="Fill-5" d="M5.26,12.841a4.253,4.253,0,0,1-2.225.576A2.738,2.738,0,0,1,.109,10.568V1.341L2.984.1V3.762H5.6V6.094H2.984V9.889c0,.9.377,1.137,1.061,1.137A2.593,2.593,0,0,0,5.671,10.3Z" transform="translate(-0.109 -0.1)" fill="#fff" fill-rule="evenodd"/>
            </g>
            <path id="Fill-8" d="M51.185,8.9c-1.249,0-1.842,1.118-1.842,2.633s.593,2.618,1.842,2.618,1.857-1.255,1.857-2.618c.016-1.5-.593-2.633-1.857-2.633m0,7.715c-2.606,0-4.51-2.082-4.51-5.1,0-3,1.9-5.113,4.51-5.113s4.526,2.113,4.526,5.113c0,3.016-1.92,5.1-4.526,5.1" transform="translate(-17.307 -2.697)" fill="#fff" fill-rule="evenodd"/>
            <path id="Fill-10" d="M72.087,13.812,67.233,6.774c-.326-.483-.76-1.118-.93-1.45,0,.483.031,2.1.031,2.809V13.8H63.729V.914h2.528l4.7,6.826c.326.483.76,1.118.93,1.45,0-.483-.031-2.1-.031-2.809V.929h2.605V13.812Z" transform="translate(-23.631 -0.436)" fill="#fff" fill-rule="evenodd"/>
            <path id="Fill-12" d="M89.375,12.309a3.028,3.028,0,0,0-1.8-.413c-.97,0-1.494.444-1.494,1.225,0,.689.4,1.3,1.494,1.3a2.127,2.127,0,0,0,1.8-.888Zm0,4.1v-.658a3.121,3.121,0,0,1-2.218.857,3.431,3.431,0,0,1-3.681-3.49c0-2.158,1.756-3.245,3.989-3.245a4.009,4.009,0,0,1,1.894.4v-.49a1.243,1.243,0,0,0-1.4-1.255,4.8,4.8,0,0,0-2.7.658l-1-1.791a6.588,6.588,0,0,1,3.7-1c2.387,0,3.989,1.225,3.989,3.429V16.4H89.375Z" transform="translate(-30.953 -2.697)" fill="#fff" fill-rule="evenodd"/>
            <g id="Group-16" transform="translate(62.821)">
              <path id="Fill-14" d="M5.211,12.841a4.035,4.035,0,0,1-2.159.576,2.7,2.7,0,0,1-2.84-2.849V1.341L3,.1V3.762H5.543V6.094H3V9.889c0,.9.365,1.137,1.03,1.137A2.479,2.479,0,0,0,5.61,10.3Z" transform="translate(-0.211 -0.1)" fill="#fff" fill-rule="evenodd"/>
            </g>
            <path id="Fill-17" d="M110.4,16.073h2.259V6.4H110.4Z" transform="translate(-40.938 -2.697)" fill="#fff" fill-rule="evenodd"/>
            <path id="Fill-19" d="M121.2,8.9c-1.249,0-1.842,1.118-1.842,2.633s.593,2.618,1.842,2.618,1.857-1.255,1.857-2.618c0-1.5-.609-2.633-1.857-2.633m0,7.715c-2.606,0-4.51-2.082-4.51-5.1,0-3,1.9-5.113,4.51-5.113s4.526,2.113,4.526,5.113c0,3.016-1.92,5.1-4.526,5.1" transform="translate(-43.268 -2.697)" fill="#fff" fill-rule="evenodd"/>
            <path id="Fill-20" d="M138.746,16.058V10.933c0-1.7-.6-2.207-1.651-2.207s-1.682.5-1.682,2.148v5.185h-2.569V6.593h2.569V7.23a3.293,3.293,0,0,1,2.294-.83c2.492,0,3.609,1.659,3.609,4.326v5.348h-2.569Z" transform="translate(-49.259 -2.697)" fill="#fff" fill-rule="evenodd"/>
            <path id="Fill-21" d="M147.831,21.348h-.168v.16h.168c.061,0,.092-.029.092-.087a.084.084,0,0,0-.092-.073m.076.261.122.232h-.122l-.122-.232h-.122v.232h-.107v-.581h.275a.18.18,0,0,1,.076.349m-.137-.494a.451.451,0,1,0,.473.45.446.446,0,0,0-.473-.45m0,.988a.538.538,0,1,1,.565-.537.541.541,0,0,1-.565.537" transform="translate(-54.584 -8.727)" fill="#fff" fill-rule="evenodd"/>
            <path id="Fill-22" d="M103.739,26.514c-2.768,0-5.537.036-8.29.107-3.866.09-7.748.233-11.615.448-3.758.215-7.532.448-11.29.77-2.939.251-5.877.537-8.816.824.077,0,.17-.018.247-.018,3.171-.2,6.326-.394,9.5-.555,3.634-.2,7.269-.269,10.888-.358,2.243-.054,4.485-.072,6.728-.072,1.5,0,3,.018,4.485.018q5.406.054,10.811.269c1.639.072,3.294.143,4.934.251.649.036,1.315.09,1.964.125.356.018.7.054,1.052.072.093,0,.232.036.356.036a.353.353,0,0,0,.4-.376c.016-.233.016-.466.031-.7v-.09c0-.287-.077-.5-.356-.537-.325-.018-.65-.036-.974-.036-.712-.036-1.423-.054-2.134-.072-1.67-.054-3.356-.09-5.026-.09-.959-.018-1.918-.018-2.892-.018" transform="translate(-23.631 -10.989)" fill="#fff" fill-rule="evenodd"/>
            <path id="Fill-23" d="M101.279,29.257c-.833,0-1.682,0-2.515.015-2.854.03-5.723.061-8.577.152-2.237.061-4.474.152-6.711.228h.185c2.407-.031,4.813-.061,7.2-.061h.987c2.422,0,4.859.046,7.282.076,2.839.046,5.677.152,8.5.259,2.731.107,5.461.259,8.192.441,1.25.076,2.484.167,3.733.274.494.045.987.076,1.481.122.262.031.525.046.8.076a1.732,1.732,0,0,0,.293.031c.139,0,.262-.046.278-.213a3.693,3.693,0,0,0,.031-.4v-.076a.253.253,0,0,0-.247-.289c-.247-.03-.494-.03-.741-.046-.54-.03-1.08-.076-1.62-.106-1.265-.076-2.545-.137-3.81-.182-2.823-.106-5.662-.2-8.485-.243-2.067-.045-4.165-.061-6.263-.061" transform="translate(-30.953 -12.119)" fill="#ef8ab3" fill-rule="evenodd"/>
          </g>
        </g>
      </g>
    </g>
    <rect id="hr" width="318" height="0.5" transform="translate(28.5 3538)" fill="#fff"/>
    <text id="additionalLinks" transform="translate(186.276 3417.5)" fill="#fff" font-size="12" font-family="ArialMT, Arial"><tspan x="-28.002" y="0">Disclaimer</tspan><tspan x="0" y="12"></tspan><tspan x="-24.68" y="24">About Us</tspan><tspan x="0" y="36"></tspan><tspan x="-37.342" y="48">Privacy Policy</tspan><tspan x="0" y="60"></tspan><tspan x="-35.341" y="72">Terms of Use</tspan><tspan x="0" y="84"></tspan><tspan x="-21.34" y="96">Careers</tspan></text>
    <rect id="hr-2" data-name="hr" width="318" height="0.5" transform="translate(28.5 3389.5)" fill="#fff"/>
    <text id="quickLinks" transform="translate(186.302 3314.5)" fill="#fff" font-size="12" font-family="Arial-BoldMT, Arial" font-weight="700"><tspan x="-14.997" y="0">Shop</tspan><tspan x="0" y="12"></tspan><tspan x="-10.673" y="24">Sell</tspan><tspan x="0" y="36"></tspan><tspan x="-21.352" y="48">Service</tspan></text>
    <rect id="hr-3" data-name="hr" width="318" height="0.5" transform="translate(28.5 3282)" fill="#fff"/>
    <g id="youtubeIcon" transform="translate(224.157 3249)" clip-path="url(#clip-path)">
      <path id="Path_216596" data-name="Path 216596" d="M95,4.1h33.549V-22H95Z" transform="translate(-100 17)" fill="rgba(255,255,255,0.99)"/>
    </g>
    <g id="twitterIcon" transform="translate(190.157 3250)" clip-path="url(#clip-path-2)">
      <path id="Path_216594" data-name="Path 216594" d="M61,2.65H88.122V-21H61Z" transform="translate(-66 16)" fill="rgba(255,255,255,0.99)"/>
    </g>
    <g id="igIcon">
      <g id="Group_27329" data-name="Group 27329" transform="translate(158.174 3250.018)">
        <path id="Path_216598" data-name="Path 216598" d="M13.961,10.937A3.943,3.943,0,0,1,10.1,14.956H3.864A3.944,3.944,0,0,1,0,10.937V4.019A3.943,3.943,0,0,1,3.864,0H10.1a3.943,3.943,0,0,1,3.864,4.019Z" fill="none" stroke="rgba(253,253,253,0.99)" stroke-width="1.19"/>
      </g>
      <g id="Group_27330" data-name="Group 27330" transform="translate(161.727 3253.907)">
        <path id="Path_216599" data-name="Path 216599" d="M6.855,3.566A3.526,3.526,0,0,1,3.427,7.131,3.5,3.5,0,0,1,0,3.566,3.463,3.463,0,0,1,3.427,0,3.275,3.275,0,0,1,6.855,3.566Z" transform="translate(0 0)" fill="none" stroke="rgba(253,253,253,0.99)" stroke-width="1.454"/>
      </g>
      <g id="Group_27331" data-name="Group 27331" transform="translate(168.415 3252.065)" clip-path="url(#clip-path-3)">
        <path id="Path_216600" data-name="Path 216600" d="M39.258-6.935H51.18v-12H39.258Z" transform="translate(-44.258 13.935)" fill="rgba(253,253,253,0.99)"/>
      </g>
    </g>
    <g id="fbIcon" transform="translate(124.157 3250)" clip-path="url(#clip-path-4)">
      <path id="Path_216592" data-name="Path 216592" d="M-5,4H20V-21H-5Z" transform="translate(0 16)" fill="rgba(255,255,255,0.99)"/>
    </g>
    <text id="Follow_Us" data-name="Follow Us" transform="translate(160.397 3229)" fill="#fff" font-size="12" font-family="ArialMT, Arial"><tspan x="0" y="0">Follow Us</tspan></text>
  </g>
</svg>
