<svg xmlns="http://www.w3.org/2000/svg" width="40" height="40.002" viewBox="0 0 40 40.002">
  <g id="hassleIcon" transform="translate(-167.255 -632.489)">
    <path id="Path_216876" data-name="Path 216876" d="M49.663,348.847a20,20,0,1,0,20,20A20.025,20.025,0,0,0,49.663,348.847Zm10.742,33.642a17.191,17.191,0,0,1-10.742,3.725A17.386,17.386,0,0,1,32.3,368.848,17.2,17.2,0,0,1,36.027,358.1l.455-.576,24.5,24.512ZM63.3,379.6l-.455.578-24.5-24.514.576-.453a17.176,17.176,0,0,1,10.746-3.729,17.384,17.384,0,0,1,17.366,17.366A17.181,17.181,0,0,1,63.3,379.6Z" transform="translate(137.593 283.642)" fill="#0a3453"/>
    <path id="Path_216877" data-name="Path 216877" d="M36.692,363.482v-3.4H33.206v3.4h-1.14V355.9h1.14v3.066h3.487V355.9H37.83v7.581Z" transform="translate(140.747 292.897)" fill="#0a3453"/>
    <path id="Path_216878" data-name="Path 216878" d="M38.439,362.474v-.562a2.238,2.238,0,0,1-1.558.682,1.836,1.836,0,0,1-1.972-1.919c0-1.267.976-1.84,2.263-1.84a3.173,3.173,0,0,1,1.267.215v-.421c0-.617-.377-.964-1.07-.964a2.865,2.865,0,0,0-1.484.358l-.435-.846a3.538,3.538,0,0,1,1.951-.509c1.267,0,2.132.617,2.132,1.905v3.9Zm0-2.425a2.787,2.787,0,0,0-1.3-.25c-.714,0-1.17.324-1.17.846,0,.562.358.941,1.094.941a1.783,1.783,0,0,0,1.376-.726Z" transform="translate(144.477 293.905)" fill="#0a3453"/>
    <path id="Path_216879" data-name="Path 216879" d="M39.453,362.595a3.874,3.874,0,0,1-2.176-.726l.509-.846a2.983,2.983,0,0,0,1.658.564c.705,0,1.04-.227,1.04-.627,0-.435-.5-.64-1.32-.955-1.228-.476-1.669-.888-1.669-1.787,0-1.017.8-1.549,1.94-1.549a3.385,3.385,0,0,1,1.926.629l-.486.855a2.491,2.491,0,0,0-1.475-.488c-.541,0-.779.217-.779.52,0,.282.194.488,1.052.823,1.265.488,1.917.835,1.917,1.905C41.589,362.172,40.569,362.595,39.453,362.595Z" transform="translate(147.584 293.905)" fill="#0a3453"/>
    <path id="Path_216880" data-name="Path 216880" d="M41.6,362.595a3.875,3.875,0,0,1-2.178-.726l.511-.846a2.97,2.97,0,0,0,1.655.564c.705,0,1.04-.227,1.04-.627,0-.435-.5-.64-1.322-.955-1.223-.476-1.667-.888-1.667-1.787,0-1.017.8-1.549,1.937-1.549a3.387,3.387,0,0,1,1.928.629l-.486.855a2.489,2.489,0,0,0-1.473-.488c-.541,0-.781.217-.781.52,0,.282.194.488,1.052.823,1.267.488,1.917.835,1.917,1.905C43.739,362.172,42.719,362.595,41.6,362.595Z" transform="translate(150.405 293.905)" fill="#0a3453"/>
    <path id="Path_216881" data-name="Path 216881" d="M41.734,363.661v-7.313l1.117-.583v7.9Z" transform="translate(153.432 292.719)" fill="#0a3453"/>
    <path id="Path_216882" data-name="Path 216882" d="M47.519,360.028H43.76c.12,1.094.738,1.558,1.431,1.558a2,2,0,0,0,1.235-.455l.661.714a2.651,2.651,0,0,1-1.961.749c-1.334,0-2.46-1.073-2.46-2.957,0-1.928,1.017-2.969,2.49-2.969,1.614,0,2.4,1.311,2.4,2.848C47.551,359.723,47.528,359.908,47.519,360.028Zm-2.437-2.351c-.747,0-1.2.52-1.3,1.429h2.643C46.37,358.327,46,357.677,45.082,357.677Z" transform="translate(154.655 293.905)" fill="#0a3453"/>
  </g>
</svg>
