<svg xmlns="http://www.w3.org/2000/svg" width="321.282" height="93" viewBox="0 0 321.282 93">
  <g id="saveMath" transform="translate(-26.718 -2867)">
    <g id="carOfferAmount">
      <text id="_10_000" data-name="$10,000" transform="translate(65.718 2929)" fill="#0a3453" font-size="14" font-family="Arial-BoldMT, Arial" font-weight="700" letter-spacing="-0.005em"><tspan x="-25.093" y="0">$10,000</tspan></text>
      <text id="OUR_OFFER_FOR_YOUR_CAR" data-name="OUR OFFER 
FOR YOUR CAR" transform="translate(65.718 2946)" font-size="10" font-family="Arial-BoldMT, Arial" font-weight="700" letter-spacing="-0.005em"><tspan x="-30.608" y="0">OUR OFFER </tspan><tspan x="-38.246" y="12">FOR YOUR CAR</tspan></text>
      <g id="carIcon">
        <path id="Path_216861" data-name="Path 216861" d="M2.14,21.719,4.033,29.29v2.9A2.014,2.014,0,0,0,6.047,34.2h4.027a2.014,2.014,0,0,0,2.014-2.014V30.176H30.21v2.014A2.014,2.014,0,0,0,32.224,34.2h4.027a2.014,2.014,0,0,0,2.014-2.014v-2.9l1.893-7.571a4.993,4.993,0,0,0-1.53-4.994l-2.376-2.195L34.237,6.779a1.027,1.027,0,0,0-.685-.765A43.718,43.718,0,0,0,21.149,4a43.718,43.718,0,0,0-12.4,2.014,1.027,1.027,0,0,0-.685.765L6.047,14.531,3.67,16.725A4.993,4.993,0,0,0,2.14,21.719Zm7.934,10.47H6.047V30.176h4.027Zm26.177,0H32.224V30.176h4.027ZM9.913,7.806A43.053,43.053,0,0,1,21.149,6.014,43.054,43.054,0,0,1,32.385,7.806l1.571,6.262H8.342ZM5.02,18.236l2.416-2.154H34.861l2.416,2.154a2.98,2.98,0,0,1,.987,2.98l-1.792,6.947H5.825L4.033,21.216a2.98,2.98,0,0,1,.987-2.98Z" transform="translate(39.737 2868)" fill="#0a3453"/>
        <path id="Path_216862" data-name="Path 216862" d="M9.593,18.041h1.148a3.02,3.02,0,1,0,0-6.041H6.331a2.014,2.014,0,0,0-1.812,2.92,5.638,5.638,0,0,0,5.074,3.121Zm1.148-4.027a1.007,1.007,0,1,1,0,2.014H9.593a3.625,3.625,0,0,1-3.262-2.014Z" transform="translate(42.091 2876.108)" fill="#0a3453"/>
        <path id="Path_216863" data-name="Path 216863" d="M17.02,18.041h1.148a5.638,5.638,0,0,0,5.074-3.121A2.014,2.014,0,0,0,21.43,12H17.02a3.02,3.02,0,1,0,0,6.041Zm0-4.027h4.41a3.625,3.625,0,0,1-3.262,2.014H17.02a1.007,1.007,0,1,1,0-2.014Z" transform="translate(51.92 2876.108)" fill="#0a3453"/>
      </g>
    </g>
    <path id="mutltiplyIcon" d="M17,16.226,9.272,8.5,17,.773,16.226,0,8.5,7.727.773,0,0,.773,7.727,8.5,0,16.226.773,17,8.5,9.272,16.226,17Z" transform="translate(115 2907)" fill="#0a3453" stroke="#0a3453" stroke-width="2"/>
    <g id="floridaTaxes">
      <text id="_6_" data-name="6%" transform="translate(184.718 2929)" fill="#0a3453" font-size="14" font-family="Arial-BoldMT, Arial" font-weight="700" letter-spacing="-0.005em"><tspan x="-10.082" y="0">6%</tspan></text>
      <text id="FLORIDA_TAX_RATE" data-name="FLORIDA 
TAX RATE" transform="translate(184.718 2946)" font-size="10" font-family="Arial-BoldMT, Arial" font-weight="700" letter-spacing="-0.005em"><tspan x="-23.248" y="0">FLORIDA </tspan><tspan x="-24.083" y="12">TAX RATE</tspan></text>
      <g id="taxIcon">
        <path id="Path_216835" data-name="Path 216835" d="M29.386,32.772a5.386,5.386,0,1,1,5.386-5.386A5.353,5.353,0,0,1,29.386,32.772Zm0-9.233a3.847,3.847,0,1,0,3.847,3.847A3.81,3.81,0,0,0,29.386,23.539Z" transform="translate(153.542 2864.426)" fill="#0a3453"/>
        <rect id="Rectangle_77525" data-name="Rectangle 77525" width="12.311" height="1.539" transform="translate(201.673 2901.854) rotate(135)" fill="#0a3453"/>
        <circle id="Ellipse_2" data-name="Ellipse 2" cx="1.539" cy="1.539" r="1.539" transform="translate(192.545 2901.43)" fill="#0a3453"/>
        <circle id="Ellipse_3" data-name="Ellipse 3" cx="1.539" cy="1.539" r="1.539" transform="translate(197.931 2906.816)" fill="#0a3453"/>
        <path id="Path_216836" data-name="Path 216836" d="M46,54A10,10,0,1,1,56,44,9.983,9.983,0,0,1,46,54Zm0-18.466A8.464,8.464,0,1,0,54.466,44,8.439,8.439,0,0,0,46,35.539Z" transform="translate(150.775 2861.659)" fill="#0a3453"/>
        <path id="Path_216837" data-name="Path 216837" d="M45.9,7.116a.749.749,0,0,0-.769-.616h-.154L23.2,10.809,46.206,8.577Z" transform="translate(153.726 2868)" fill="none"/>
        <path id="Path_216838" data-name="Path 216838" d="M47.883,13.354l-.154-1.462a.818.818,0,0,0-.769-.692h-.077L24.8,13.354Z" transform="translate(153.357 2866.916)" fill="none"/>
        <path id="Path_216839" data-name="Path 216839" d="M36.1,45.49Z" transform="translate(150.752 2859.018)" fill="#0a3453"/>
        <path id="Path_216840" data-name="Path 216840" d="M61.7,44.3Z" transform="translate(144.849 2859.284)" fill="#0a3453"/>
        <path id="Path_216841" data-name="Path 216841" d="M44.5,34.8Z" transform="translate(148.815 2861.475)" fill="#0a3453"/>
        <path id="Path_216842" data-name="Path 216842" d="M46.9,34.2Z" transform="translate(148.261 2861.613)" fill="#0a3453"/>
        <path id="Path_216843" data-name="Path 216843" d="M45.7,34.4Z" transform="translate(148.538 2861.567)" fill="#0a3453"/>
        <path id="Path_216844" data-name="Path 216844" d="M61.9,45.5v0Z" transform="translate(144.803 2859.007)" fill="#0a3453"/>
        <path id="Path_216845" data-name="Path 216845" d="M46.464,36a8.464,8.464,0,1,0,8.464,8.464A8.439,8.439,0,0,0,46.464,36Z" transform="translate(150.314 2861.198)" fill="none"/>
        <path id="Path_216846" data-name="Path 216846" d="M61.9,45.6c0,.308.077.692.077,1.077A5.08,5.08,0,0,0,61.9,45.6Z" transform="translate(144.803 2858.984)" fill="none"/>
        <path id="Path_216847" data-name="Path 216847" d="M51.5,34c1.231.769,2.385.923,3.462,1.616h0c-1-.692-2.231-.846-3.462-1.616Z" transform="translate(147.201 2861.659)" fill="none"/>
        <path id="Path_216848" data-name="Path 216848" d="M60.847,42.778A10.086,10.086,0,0,0,58,37.7h0A10.086,10.086,0,0,1,60.847,42.778Z" transform="translate(145.702 2860.806)" fill="none"/>
        <path id="Path_216849" data-name="Path 216849" d="M61.7,44.3c.077.308.077.616.154.846A3.97,3.97,0,0,0,61.7,44.3Z" transform="translate(144.849 2859.284)" fill="none"/>
        <path id="Path_216850" data-name="Path 216850" d="M49,57A9.983,9.983,0,0,0,59,47,9.983,9.983,0,0,1,49,57Z" transform="translate(147.777 2858.662)" fill="none"/>
        <path id="Path_216851" data-name="Path 216851" d="M47.823,34h0c-.308,0-.616.077-.923.077A3.746,3.746,0,0,0,47.823,34Z" transform="translate(148.261 2861.659)" fill="none"/>
        <path id="Path_216852" data-name="Path 216852" d="M37,41.539A9.857,9.857,0,0,1,37.846,40h0A9.857,9.857,0,0,0,37,41.539Z" transform="translate(150.544 2860.276)" fill="none"/>
        <path id="Path_216853" data-name="Path 216853" d="M45.446,34.4a2.756,2.756,0,0,0-.846.308C44.831,34.631,45.139,34.477,45.446,34.4Z" transform="translate(148.792 2861.567)" fill="none"/>
        <path id="Path_216854" data-name="Path 216854" d="M39.6,37.262h0A10.344,10.344,0,0,1,43.37,34.8,11.03,11.03,0,0,0,39.6,37.262Z" transform="translate(149.945 2861.475)" fill="none"/>
        <path id="Path_216855" data-name="Path 216855" d="M36.331,44c-.077.385-.154.692-.231,1.077.077-.385.154-.692.231-1.077Z" transform="translate(150.752 2859.353)" fill="none"/>
        <path id="Path_216856" data-name="Path 216856" d="M36,46.654a5.824,5.824,0,0,1,.077-1.154A5.824,5.824,0,0,0,36,46.654Z" transform="translate(150.775 2859.007)" fill="none"/>
        <path id="Path_216857" data-name="Path 216857" d="M36,47A9.983,9.983,0,0,0,46,57,9.983,9.983,0,0,1,36,47Z" transform="translate(150.775 2858.662)" fill="none"/>
        <path id="Path_216858" data-name="Path 216858" d="M46.623,34.2l-.923.231A4.058,4.058,0,0,1,46.623,34.2Z" transform="translate(148.538 2861.613)" fill="none"/>
        <path id="Path_216859" data-name="Path 216859" d="M29.313,34.927a10.568,10.568,0,0,1,1-1.539H14.078a5.305,5.305,0,0,0-4.54-4.54V24.155a5.305,5.305,0,0,0,4.54-4.54h23.16a5.305,5.305,0,0,0,4.54,4.54v4.693c-.154,0-.308.077-.462.077a8.516,8.516,0,0,1,2,.539V22.617h-.769A3.81,3.81,0,0,1,38.7,18.769V18H12.617v.769a3.81,3.81,0,0,1-3.847,3.847H8v7.694h.769a3.81,3.81,0,0,1,3.847,3.847v.769Z" transform="translate(157.231 2865.348)" fill="#0a3453"/>
        <path id="Path_216860" data-name="Path 216860" d="M27.21,33.365H5.743a.727.727,0,0,1-.769-.769V14.129a.727.727,0,0,1,.769-.769H42.676a.727.727,0,0,1,.769.769V26.979a10.568,10.568,0,0,1,1.539,1V14.129a2.147,2.147,0,0,0-.923-1.77l-.231-2.154a2.282,2.282,0,0,0-1.077-1.693l-.385-2.077a2.339,2.339,0,0,0-2.693-1.847L3.435,11.744a2.339,2.339,0,0,0-1.847,2.693l1.847,9V32.6A2.267,2.267,0,0,0,5.743,34.9H26.749A5.107,5.107,0,0,1,27.21,33.365ZM41.6,9.667a.818.818,0,0,1,.769.692l.154,1.462H19.439L41.6,9.667ZM39.983,6.051h.154a.749.749,0,0,1,.769.616l.308,1.462L18.208,10.359Z" transform="translate(158.718 2868.449)" fill="#0a3453"/>
      </g>
    </g>
    <text id="_" data-name="=" transform="translate(251.718 2929)" fill="#0a3453" font-size="40" font-family="ArialMT, Arial" letter-spacing="-0.005em"><tspan x="-11.68" y="0">=</tspan></text>
    <g id="saveTaxes">
      <text id="_600" data-name="$600" transform="translate(317.718 2929)" fill="#0a3453" font-size="14" font-family="Arial-BoldMT, Arial" font-weight="700" letter-spacing="-0.005em"><tspan x="-15.467" y="0">$600</tspan></text>
      <text id="SAVED_IN_TAXES" data-name="SAVED IN
TAXES" transform="translate(317.718 2946)" font-size="10" font-family="Arial-BoldMT, Arial" font-weight="700" letter-spacing="-0.005em"><tspan x="-23.07" y="0">SAVED IN</tspan><tspan x="-16.199" y="12">TAXES</tspan></text>
      <g id="saveIcon">
        <path id="Path_216864" data-name="Path 216864" d="M16.938,55.753,12.313,44.977M53.15,49.114s11.7-11.13,13.706-7.758c0,0,.571.434,1.387,3.631,0,0-8.179,5.484-11.469,9-8.661,9.257-20.86,6.234-20.86,6.234-5.38.088-15.421-9.167-22.585-2.32L8.962,47.085s11.353-7.391,14.806-7.921,9.516,1.761,14.851,4.781,9.9.962,13.506,4.031-8.447,5.784-10.916,5.273-4.583-2.544-6.871-2.334m-6.874-.128a23.8,23.8,0,0,1,3.28.018M45.737,26.919v-1.74m0,12.806v-1.74m-2.515-.666s4.064,2.113,4.93-1.187c.934-3.561-4.827-2.458-4.93-5.369-.124-3.547,4.93-1.533,4.93-1.533m-2.3-5.449A9.454,9.454,0,1,0,55.3,31.494,9.454,9.454,0,0,0,45.851,22.04Z" transform="translate(278.756 2845.96)" fill="none" stroke="#0a3453" stroke-linecap="round" stroke-linejoin="round" stroke-miterlimit="10" stroke-width="2"/>
      </g>
    </g>
  </g>
</svg>
